<svg xmlns="http://www.w3.org/2000/svg" viewBox="0 0 480 300" width="480" height="300" ><defs><filter id="blur46" x="-60%" y="-60%" width="220%" height="220%"><feGaussianBlur stdDeviation="46"/></filter><filter id="blur30" x="-60%" y="-60%" width="220%" height="220%"><feGaussianBlur stdDeviation="30"/></filter></defs><linearGradient id="bg" x1="0%" y1="0%" x2="100%" y2="100%"><stop offset="0%" stop-color="#fff6ec"/><stop offset="100%" stop-color="#fde6cf"/></linearGradient><rect width="480" height="300" fill="url(#bg)"/><pattern id="dots" width="24" height="24" patternUnits="userSpaceOnUse"><circle cx="12.0" cy="12.0" r="1.1" fill="#b5530a" opacity="0.08"/></pattern><rect width="480" height="300" fill="url(#dots)"/><circle cx="412.8" cy="24.0" r="130" fill="#f0a93b" opacity="0.35" filter="url(#blur46)"/><circle cx="38.4" cy="306.0" r="110" fill="#b5530a" opacity="0.28" filter="url(#blur30)"/><circle cx="372.0" cy="126.0" r="86" fill="none" stroke="#b5530a" stroke-opacity="0.14" stroke-width="1.5"/><circle cx="372.0" cy="126.0" r="60" fill="none" stroke="#b5530a" stroke-opacity="0.20" stroke-width="1.5"/><g transform="translate(326.0,80.0) scale(3.8333333333333335)" opacity="0.95"><path d="M10.29 3.86 1.82 18a2 2 0 0 0 1.71 3h16.94a2 2 0 0 0 1.71-3L13.71 3.86a2 2 0 0 0-3.42 0zM12 9v4M12 17h.01" fill="none" stroke="#b5530a" stroke-width="0.34" stroke-linecap="round" stroke-linejoin="round"/></g><rect x="28" y="28" rx="20" ry="20" width="86.39999999999999" height="34" fill="#b5530a" opacity="0.14"/><text x="37" y="50" font-family="'Plus Jakarta Sans','Segoe UI',sans-serif" font-size="12.5" font-weight="700" letter-spacing="1.4" fill="#b5530a" opacity="0.92"><tspan x="40">EMERGENCY</tspan></text><text x="28" y="266" font-family="'Plus Jakarta Sans','Segoe UI',sans-serif" font-size="23" font-weight="800" fill="#b5530a">Emergency Dentistry</text><rect x="28" y="278" width="42" height="4" rx="2" fill="#f0a93b"/></svg>