<svg xmlns="http://www.w3.org/2000/svg" viewBox="0 0 480 300" width="480" height="300" ><defs><filter id="blur46" x="-60%" y="-60%" width="220%" height="220%"><feGaussianBlur stdDeviation="46"/></filter><filter id="blur30" x="-60%" y="-60%" width="220%" height="220%"><feGaussianBlur stdDeviation="30"/></filter></defs><linearGradient id="bg" x1="0%" y1="0%" x2="100%" y2="100%"><stop offset="0%" stop-color="#0b2545"/><stop offset="100%" stop-color="#16706f"/></linearGradient><rect width="480" height="300" fill="url(#bg)"/><pattern id="dots" width="24" height="24" patternUnits="userSpaceOnUse"><circle cx="12.0" cy="12.0" r="1.1" fill="#ffffff" opacity="0.1"/></pattern><rect width="480" height="300" fill="url(#dots)"/><circle cx="412.8" cy="24.0" r="130" fill="#6fc4c4" opacity="0.35" filter="url(#blur46)"/><circle cx="38.4" cy="306.0" r="110" fill="#1b4178" opacity="0.28" filter="url(#blur30)"/><circle cx="372.0" cy="126.0" r="86" fill="none" stroke="#ffffff" stroke-opacity="0.14" stroke-width="1.5"/><circle cx="372.0" cy="126.0" r="60" fill="none" stroke="#ffffff" stroke-opacity="0.20" stroke-width="1.5"/><g transform="translate(326.0,80.0) scale(3.8333333333333335)" opacity="0.95"><path d="M12 12m-3 0a3 3 0 1 0 6 0a3 3 0 1 0 -6 0M12 2v3M12 19v3M2 12h3M19 12h3M5 5l2 2M17 17l2 2M19 5l-2 2M7 17l-2 2" fill="none" stroke="#ffffff" stroke-width="0.34" stroke-linecap="round" stroke-linejoin="round"/></g><rect x="28" y="28" rx="20" ry="20" width="94.0" height="34" fill="#ffffff" opacity="0.14"/><text x="37" y="50" font-family="'Plus Jakarta Sans','Segoe UI',sans-serif" font-size="12.5" font-weight="700" letter-spacing="1.4" fill="#ffffff" opacity="0.92"><tspan x="40">TECHNOLOGY</tspan></text><text x="28" y="266" font-family="'Plus Jakarta Sans','Segoe UI',sans-serif" font-size="23" font-weight="800" fill="#ffffff">Laser Dentistry</text><rect x="28" y="278" width="42" height="4" rx="2" fill="#6fc4c4"/></svg>